<svg xmlns="http://www.w3.org/2000/svg" xmlns:xlink="http://www.w3.org/1999/xlink" viewBox="0 0 700 348" width="700" height="348"><path d="M 136.333,242.000 C 137.552,234.977 137.667,235.000 139.000,228.000" stroke-width="5.157" stroke="black" fill="none" stroke-linecap="round"></path><path d="M 139.000,228.000 C 141.119,217.280 141.219,217.310 143.667,206.667" stroke-width="2.837" stroke="black" fill="none" stroke-linecap="round"></path><path d="M 143.667,206.667 C 145.410,200.687 145.119,200.614 147.000,194.667" stroke-width="3.058" stroke="black" fill="none" stroke-linecap="round"></path><path d="M 147.000,194.667 C 149.984,182.996 150.076,183.020 153.000,171.333" stroke-width="2.507" stroke="black" fill="none" stroke-linecap="round"></path><path d="M 153.000,171.333 C 155.079,163.686 154.984,163.662 157.000,156.000" stroke-width="2.722" stroke="black" fill="none" stroke-linecap="round"></path><path d="M 157.000,156.000 C 157.731,153.013 157.745,153.019 158.333,150.000" stroke-width="3.540" stroke="black" fill="none" stroke-linecap="round"></path><path d="M 158.333,150.000 C 161.360,143.372 159.064,146.346 159.667,142.667" stroke-width="3.743" stroke="black" fill="none" stroke-linecap="round"></path><path d="M 159.667,142.667 C 153.810,143.341 157.360,141.706 150.333,146.667" stroke-width="4.475" stroke="black" fill="none" stroke-linecap="round"></path><path d="M 150.333,146.667 C 147.063,151.874 146.143,150.675 144.333,157.333" stroke-width="3.558" stroke="black" fill="none" stroke-linecap="round"></path><path d="M 144.333,157.333 C 142.915,159.904 143.063,159.874 142.333,162.667" stroke-width="3.993" stroke="black" fill="none" stroke-linecap="round"></path><path d="M 142.333,162.667 C 141.118,166.436 141.582,166.238 141.667,170.000" stroke-width="3.893" stroke="black" fill="none" stroke-linecap="round"></path><path d="M 141.667,170.000 C 142.442,175.485 142.452,175.102 145.000,180.000" stroke-width="3.589" stroke="black" fill="none" stroke-linecap="round"></path><path d="M 145.000,180.000 C 148.923,185.065 148.108,185.485 153.000,190.000" stroke-width="3.250" stroke="black" fill="none" stroke-linecap="round"></path><path d="M 153.000,190.000 C 155.503,192.533 155.256,192.731 157.667,195.333" stroke-width="3.723" stroke="black" fill="none" stroke-linecap="round"></path><path d="M 157.667,195.333 C 160.950,200.037 161.169,199.866 164.333,204.667" stroke-width="3.460" stroke="black" fill="none" stroke-linecap="round"></path><path d="M 164.333,204.667 C 167.852,208.367 167.283,208.703 170.333,212.667" stroke-width="3.461" stroke="black" fill="none" stroke-linecap="round"></path><path d="M 170.333,212.667 C 173.243,217.205 172.852,217.033 174.333,222.000" stroke-width="4.028" stroke="black" fill="none" stroke-linecap="round"></path><path d="M 174.333,222.000 C 175.333,225.556 174.910,224.538 173.667,227.333" stroke-width="4.154" stroke="black" fill="none" stroke-linecap="round"></path><path d="M 173.667,227.333 C 169.353,231.328 170.333,230.889 164.333,232.667" stroke-width="4.237" stroke="black" fill="none" stroke-linecap="round"></path><path d="M 164.333,232.667 C 158.847,233.464 159.353,233.995 153.667,232.667" stroke-width="3.594" stroke="black" fill="none" stroke-linecap="round"></path><path d="M 153.667,232.667 C 150.241,231.525 150.180,232.130 147.000,230.000" stroke-width="3.839" stroke="black" fill="none" stroke-linecap="round"></path><path d="M 147.000,230.000 C 142.333,227.172 144.574,228.858 142.333,227.333" stroke-width="4.487" stroke="black" fill="none" stroke-linecap="round"></path><path d="M 142.333,227.333 C 144.615,229.077 142.333,227.505 147.000,230.667" stroke-width="5.086" stroke="black" fill="none" stroke-linecap="round"></path><path d="M 147.000,230.667 C 149.399,233.066 149.615,232.410 152.333,234.000" stroke-width="4.304" stroke="black" fill="none" stroke-linecap="round"></path><path d="M 152.333,234.000 C 157.125,235.712 156.732,235.400 161.667,235.333" stroke-width="4.373" stroke="black" fill="none" stroke-linecap="round"></path><path d="M 161.667,235.333 C 165.558,234.811 165.125,235.045 168.333,232.667" stroke-width="4.018" stroke="black" fill="none" stroke-linecap="round"></path><path d="M 168.333,232.667 C 173.573,229.003 172.892,229.144 176.333,224.000" stroke-width="4.127" stroke="black" fill="none" stroke-linecap="round"></path><path d="M 176.333,224.000 C 178.069,218.732 178.906,219.336 179.000,213.333" stroke-width="3.538" stroke="black" fill="none" stroke-linecap="round"></path><path d="M 179.000,213.333 C 179.839,208.978 179.736,209.065 179.667,204.667" stroke-width="3.665" stroke="black" fill="none" stroke-linecap="round"></path><path d="M 179.667,204.667 C 177.357,198.034 179.506,200.644 178.333,196.667" stroke-width="4.221" stroke="black" fill="none" stroke-linecap="round"></path><path d="M 178.333,196.667 C 180.394,199.185 179.024,195.700 183.000,200.000" stroke-width="4.993" stroke="black" fill="none" stroke-linecap="round"></path><path d="M 183.000,200.000 C 186.555,198.777 185.727,200.852 189.000,200.000" stroke-width="5.211" stroke="black" fill="none" stroke-linecap="round"></path><path d="M 189.000,200.000 C 191.167,202.833 191.888,201.444 193.667,205.333" stroke-width="4.791" stroke="black" fill="none" stroke-linecap="round"></path><path d="M 193.667,205.333 C 196.006,209.295 196.167,207.833 199.000,210.000" stroke-width="4.677" stroke="black" fill="none" stroke-linecap="round"></path><path d="M 199.000,210.000 C 203.372,209.989 201.672,210.629 205.000,208.000" stroke-width="4.894" stroke="black" fill="none" stroke-linecap="round"></path><path d="M 205.000,208.000 C 205.156,205.325 206.372,206.323 205.000,202.667" stroke-width="4.858" stroke="black" fill="none" stroke-linecap="round"></path><path d="M 205.000,202.667 C 203.266,196.192 204.823,199.658 204.333,196.667" stroke-width="4.801" stroke="black" fill="none" stroke-linecap="round"></path><path d="M 204.333,196.667 C 207.720,200.960 206.266,197.526 211.000,205.333" stroke-width="5.012" stroke="black" fill="none" stroke-linecap="round"></path><path d="M 211.000,205.333 C 212.209,208.202 212.720,207.627 214.333,210.000" stroke-width="4.419" stroke="black" fill="none" stroke-linecap="round"></path><path d="M 214.333,210.000 C 217.037,212.667 216.542,211.869 219.667,212.667" stroke-width="4.640" stroke="black" fill="none" stroke-linecap="round"></path><path d="M 219.667,212.667 C 223.034,212.165 222.037,212.667 224.333,210.000" stroke-width="4.776" stroke="black" fill="none" stroke-linecap="round"></path><path d="M 224.333,210.000 C 227.189,204.828 227.034,205.498 227.667,199.333" stroke-width="3.717" stroke="black" fill="none" stroke-linecap="round"></path><path d="M 227.667,199.333 C 228.101,189.241 228.522,189.495 227.000,179.333" stroke-width="2.911" stroke="black" fill="none" stroke-linecap="round"></path><path d="M 227.000,179.333 C 225.315,171.337 226.101,171.241 223.667,163.333" stroke-width="2.754" stroke="black" fill="none" stroke-linecap="round"></path><path d="M 223.667,163.333 C 223.359,159.890 222.981,160.004 222.333,156.667" stroke-width="3.532" stroke="black" fill="none" stroke-linecap="round"></path><path d="M 222.333,156.667 C 221.082,152.415 221.026,152.557 219.000,148.667" stroke-width="3.713" stroke="black" fill="none" stroke-linecap="round"></path><path d="M 219.000,148.667 C 216.918,143.916 217.749,146.415 215.667,144.667" stroke-width="4.109" stroke="black" fill="none" stroke-linecap="round"></path><path d="M 215.667,144.667 C 212.017,148.561 213.584,145.916 212.333,152.667" stroke-width="4.677" stroke="black" fill="none" stroke-linecap="round"></path><path d="M 212.333,152.667 C 214.751,161.748 213.017,161.561 217.667,170.667" stroke-width="3.887" stroke="black" fill="none" stroke-linecap="round"></path><path d="M 217.667,170.667 C 220.441,179.089 220.418,179.082 223.667,187.333" stroke-width="3.085" stroke="black" fill="none" stroke-linecap="round"></path><path d="M 223.667,187.333 C 226.552,194.386 226.441,194.422 229.667,201.333" stroke-width="3.583" stroke="black" fill="none" stroke-linecap="round"></path><path d="M 229.667,201.333 C 230.199,205.025 230.886,204.053 232.333,206.667" stroke-width="3.971" stroke="black" fill="none" stroke-linecap="round"></path><path d="M 232.333,206.667 C 236.238,209.128 234.533,208.359 238.333,208.000" stroke-width="4.645" stroke="black" fill="none" stroke-linecap="round"></path><path d="M 238.333,208.000 C 239.928,205.096 240.571,206.795 241.000,202.000" stroke-width="4.218" stroke="black" fill="none" stroke-linecap="round"></path><path d="M 241.000,202.000 C 243.268,196.420 242.928,196.429 244.333,190.667" stroke-width="4.187" stroke="black" fill="none" stroke-linecap="round"></path><path d="M 244.333,190.667 C 246.346,184.755 244.935,187.420 244.333,184.000" stroke-width="4.535" stroke="black" fill="none" stroke-linecap="round"></path><path d="M 244.333,184.000 C 238.743,184.714 241.013,182.755 233.667,186.667" stroke-width="4.588" stroke="black" fill="none" stroke-linecap="round"></path><path d="M 233.667,186.667 C 227.395,189.480 230.077,188.047 227.000,190.667" stroke-width="4.581" stroke="black" fill="none" stroke-linecap="round"></path><path d="M 227.000,190.667 C 229.701,190.976 226.729,191.480 232.333,190.667" stroke-width="4.992" stroke="black" fill="none" stroke-linecap="round"></path><path d="M 232.333,190.667 C 235.303,189.493 235.367,190.310 238.333,189.333" stroke-width="4.304" stroke="black" fill="none" stroke-linecap="round"></path><path d="M 238.333,189.333 C 241.895,188.920 241.636,189.159 245.000,190.000" stroke-width="4.112" stroke="black" fill="none" stroke-linecap="round"></path><path d="M 245.000,190.000 C 249.396,192.226 249.562,191.587 253.667,194.667" stroke-width="4.264" stroke="black" fill="none" stroke-linecap="round"></path><path d="M 253.667,194.667 C 256.197,196.598 256.396,196.226 259.000,198.000" stroke-width="4.576" stroke="black" fill="none" stroke-linecap="round"></path><path d="M 259.000,198.000 C 263.179,201.515 262.863,199.932 267.000,201.333" stroke-width="4.529" stroke="black" fill="none" stroke-linecap="round"></path><path d="M 267.000,201.333 C 270.582,199.903 270.179,201.182 273.000,197.333" stroke-width="4.590" stroke="black" fill="none" stroke-linecap="round"></path><path d="M 273.000,197.333 C 275.934,193.937 275.915,194.236 277.667,190.000" stroke-width="3.946" stroke="black" fill="none" stroke-linecap="round"></path><path d="M 277.667,190.000 C 279.983,185.395 279.601,185.604 280.333,180.667" stroke-width="3.683" stroke="black" fill="none" stroke-linecap="round"></path><path d="M 280.333,180.667 C 280.860,175.513 280.650,176.395 279.000,172.000" stroke-width="4.202" stroke="black" fill="none" stroke-linecap="round"></path><path d="M 279.000,172.000 C 276.184,168.622 277.860,169.847 274.333,169.333" stroke-width="4.773" stroke="black" fill="none" stroke-linecap="round"></path><path d="M 274.333,169.333 C 271.288,172.087 271.851,170.288 270.333,175.333" stroke-width="4.662" stroke="black" fill="none" stroke-linecap="round"></path><path d="M 270.333,175.333 C 269.500,180.067 269.622,177.753 271.000,180.667" stroke-width="4.946" stroke="black" fill="none" stroke-linecap="round"></path><path d="M 271.000,180.667 C 273.873,178.736 272.833,181.400 277.000,178.000" stroke-width="4.964" stroke="black" fill="none" stroke-linecap="round"></path><path d="M 277.000,178.000 C 280.010,177.071 279.540,177.402 282.333,178.000" stroke-width="5.197" stroke="black" fill="none" stroke-linecap="round"></path><path d="M 282.333,178.000 C 284.530,182.260 285.010,179.071 287.000,182.000" stroke-width="4.901" stroke="black" fill="none" stroke-linecap="round"></path><path d="M 287.000,182.000 C 291.831,180.034 290.864,181.593 295.000,176.667" stroke-width="4.506" stroke="black" fill="none" stroke-linecap="round"></path><path d="M 295.000,176.667 C 297.066,173.822 297.164,174.367 297.667,170.667" stroke-width="4.183" stroke="black" fill="none" stroke-linecap="round"></path><path d="M 297.667,170.667 C 298.637,166.356 298.399,166.822 297.667,162.667" stroke-width="4.418" stroke="black" fill="none" stroke-linecap="round"></path><path d="M 297.667,162.667 C 296.607,159.299 296.971,160.022 294.333,158.000" stroke-width="4.687" stroke="black" fill="none" stroke-linecap="round"></path><path d="M 294.333,158.000 C 288.211,155.988 291.940,156.632 288.333,157.333" stroke-width="4.915" stroke="black" fill="none" stroke-linecap="round"></path><path d="M 288.333,157.333 C 291.946,161.135 288.544,159.654 295.000,165.333" stroke-width="5.077" stroke="black" fill="none" stroke-linecap="round"></path><path d="M 295.000,165.333 C 297.209,168.556 297.280,168.468 299.000,172.000" stroke-width="4.214" stroke="black" fill="none" stroke-linecap="round"></path><path d="M 299.000,172.000 C 300.746,177.411 301.542,176.889 303.667,182.000" stroke-width="4.215" stroke="black" fill="none" stroke-linecap="round"></path><path d="M 303.667,182.000 C 305.545,185.118 305.413,184.744 308.333,186.667" stroke-width="4.100" stroke="black" fill="none" stroke-linecap="round"></path><path d="M 308.333,186.667 C 312.066,188.967 311.545,188.451 315.667,188.667" stroke-width="3.997" stroke="black" fill="none" stroke-linecap="round"></path><circle r="1.5" cx="203" cy="169.33334350585938" fill="black"></circle></svg>