<svg xmlns="http://www.w3.org/2000/svg" xmlns:xlink="http://www.w3.org/1999/xlink" viewBox="0 0 700 348" width="700" height="348"><path d="M 141.000,242.667 C 139.000,240.462 140.000,240.333 139.000,238.000" stroke-width="5.371" stroke="black" fill="none" stroke-linecap="round"></path><path d="M 139.000,238.000 C 138.989,231.054 139.000,231.462 141.000,224.667" stroke-width="3.584" stroke="black" fill="none" stroke-linecap="round"></path><path d="M 141.000,224.667 C 145.398,213.216 144.656,213.054 150.333,202.000" stroke-width="2.580" stroke="black" fill="none" stroke-linecap="round"></path><path d="M 150.333,202.000 C 156.441,188.222 156.398,188.216 163.000,174.667" stroke-width="2.105" stroke="black" fill="none" stroke-linecap="round"></path><path d="M 163.000,174.667 C 166.389,167.510 166.441,167.555 170.333,160.667" stroke-width="2.613" stroke="black" fill="none" stroke-linecap="round"></path><path d="M 170.333,160.667 C 178.385,148.216 177.723,147.844 185.667,135.333" stroke-width="2.193" stroke="black" fill="none" stroke-linecap="round"></path><path d="M 185.667,135.333 C 191.359,125.168 191.385,125.216 196.333,114.667" stroke-width="2.262" stroke="black" fill="none" stroke-linecap="round"></path><path d="M 196.333,114.667 C 200.132,106.052 200.359,106.168 203.667,97.333" stroke-width="2.533" stroke="black" fill="none" stroke-linecap="round"></path><path d="M 203.667,97.333 C 205.100,93.700 205.132,93.719 206.333,90.000" stroke-width="3.333" stroke="black" fill="none" stroke-linecap="round"></path><path d="M 206.333,90.000 C 208.513,86.565 207.433,86.700 208.333,83.333" stroke-width="3.723" stroke="black" fill="none" stroke-linecap="round"></path><path d="M 208.333,83.333 C 207.909,79.196 208.180,80.565 205.667,78.000" stroke-width="4.408" stroke="black" fill="none" stroke-linecap="round"></path><path d="M 205.667,78.000 C 201.813,77.072 202.909,76.529 198.333,78.000" stroke-width="4.007" stroke="black" fill="none" stroke-linecap="round"></path><path d="M 198.333,78.000 C 191.788,80.273 191.813,79.739 185.667,83.333" stroke-width="3.334" stroke="black" fill="none" stroke-linecap="round"></path><path d="M 185.667,83.333 C 182.362,84.962 182.455,84.939 179.667,87.333" stroke-width="3.742" stroke="black" fill="none" stroke-linecap="round"></path><path d="M 179.667,87.333 C 173.700,92.172 174.029,92.295 169.000,98.000" stroke-width="3.106" stroke="black" fill="none" stroke-linecap="round"></path><path d="M 169.000,98.000 C 165.365,102.724 165.367,102.505 163.000,108.000" stroke-width="3.264" stroke="black" fill="none" stroke-linecap="round"></path><path d="M 163.000,108.000 C 161.157,112.595 161.032,112.391 160.333,117.333" stroke-width="3.479" stroke="black" fill="none" stroke-linecap="round"></path><path d="M 160.333,117.333 C 159.947,120.374 159.824,120.262 160.333,123.333" stroke-width="3.886" stroke="black" fill="none" stroke-linecap="round"></path><path d="M 160.333,123.333 C 160.741,128.208 160.947,128.041 162.333,132.667" stroke-width="3.683" stroke="black" fill="none" stroke-linecap="round"></path><path d="M 162.333,132.667 C 164.221,137.633 164.074,137.541 167.000,142.000" stroke-width="3.542" stroke="black" fill="none" stroke-linecap="round"></path><path d="M 167.000,142.000 C 169.109,144.892 168.887,144.966 171.667,147.333" stroke-width="3.784" stroke="black" fill="none" stroke-linecap="round"></path><path d="M 171.667,147.333 C 176.757,151.566 176.442,151.892 181.667,156.000" stroke-width="3.327" stroke="black" fill="none" stroke-linecap="round"></path><path d="M 181.667,156.000 C 187.072,160.926 187.091,160.899 192.333,166.000" stroke-width="3.109" stroke="black" fill="none" stroke-linecap="round"></path><path d="M 192.333,166.000 C 196.558,169.805 196.405,169.926 200.333,174.000" stroke-width="3.237" stroke="black" fill="none" stroke-linecap="round"></path><path d="M 200.333,174.000 C 202.422,176.604 202.558,176.472 204.333,179.333" stroke-width="3.760" stroke="black" fill="none" stroke-linecap="round"></path><path d="M 204.333,179.333 C 207.309,183.162 207.089,183.270 209.667,187.333" stroke-width="3.642" stroke="black" fill="none" stroke-linecap="round"></path><path d="M 209.667,187.333 C 211.955,190.836 211.642,190.828 213.000,194.667" stroke-width="3.711" stroke="black" fill="none" stroke-linecap="round"></path><path d="M 213.000,194.667 C 214.303,198.498 213.955,198.169 213.667,202.000" stroke-width="3.858" stroke="black" fill="none" stroke-linecap="round"></path><path d="M 213.667,202.000 C 212.671,206.161 212.970,205.831 210.333,209.333" stroke-width="4.316" stroke="black" fill="none" stroke-linecap="round"></path><path d="M 210.333,209.333 C 207.999,213.750 208.004,212.495 204.333,214.667" stroke-width="3.900" stroke="black" fill="none" stroke-linecap="round"></path><path d="M 204.333,214.667 C 196.506,215.654 197.332,216.417 189.000,214.667" stroke-width="3.858" stroke="black" fill="none" stroke-linecap="round"></path><path d="M 189.000,214.667 C 183.819,213.422 183.840,213.988 179.000,211.333" stroke-width="3.580" stroke="black" fill="none" stroke-linecap="round"></path><path d="M 179.000,211.333 C 173.669,209.113 173.819,209.088 169.000,206.000" stroke-width="3.434" stroke="black" fill="none" stroke-linecap="round"></path><path d="M 169.000,206.000 C 166.818,204.159 166.669,204.446 165.000,202.000" stroke-width="3.909" stroke="black" fill="none" stroke-linecap="round"></path><path d="M 165.000,202.000 C 161.401,197.845 161.485,197.826 158.333,193.333" stroke-width="3.556" stroke="black" fill="none" stroke-linecap="round"></path><path d="M 158.333,193.333 C 155.929,189.373 155.735,189.512 153.667,185.333" stroke-width="3.615" stroke="black" fill="none" stroke-linecap="round"></path><path d="M 153.667,185.333 C 151.199,181.066 151.262,181.040 149.000,176.667" stroke-width="4.089" stroke="black" fill="none" stroke-linecap="round"></path><path d="M 149.000,176.667 C 146.147,171.224 147.533,173.732 146.333,170.667" stroke-width="4.493" stroke="black" fill="none" stroke-linecap="round"></path><path d="M 146.333,170.667 C 148.069,172.612 146.481,170.224 149.667,174.667" stroke-width="5.027" stroke="black" fill="none" stroke-linecap="round"></path><path d="M 149.667,174.667 C 152.545,178.764 152.735,178.612 155.667,182.667" stroke-width="3.818" stroke="black" fill="none" stroke-linecap="round"></path><path d="M 155.667,182.667 C 159.135,187.182 159.211,187.097 163.000,191.333" stroke-width="3.495" stroke="black" fill="none" stroke-linecap="round"></path><path d="M 163.000,191.333 C 167.839,197.300 168.135,196.849 173.667,202.000" stroke-width="3.743" stroke="black" fill="none" stroke-linecap="round"></path><path d="M 173.667,202.000 C 178.440,205.471 178.172,205.633 183.667,208.000" stroke-width="3.449" stroke="black" fill="none" stroke-linecap="round"></path><path d="M 183.667,208.000 C 188.830,210.935 188.773,210.471 194.333,212.000" stroke-width="3.931" stroke="black" fill="none" stroke-linecap="round"></path><path d="M 194.333,212.000 C 199.364,212.368 199.164,212.935 204.333,212.000" stroke-width="3.650" stroke="black" fill="none" stroke-linecap="round"></path><path d="M 204.333,212.000 C 208.438,211.692 208.364,211.701 212.333,210.667" stroke-width="3.759" stroke="black" fill="none" stroke-linecap="round"></path><path d="M 212.333,210.667 C 214.889,210.024 214.772,210.025 217.000,208.667" stroke-width="4.142" stroke="black" fill="none" stroke-linecap="round"></path><path d="M 217.000,208.667 C 219.936,207.119 219.556,207.024 221.667,204.667" stroke-width="4.087" stroke="black" fill="none" stroke-linecap="round"></path><path d="M 221.667,204.667 C 224.683,201.135 223.936,201.452 225.000,197.333" stroke-width="4.399" stroke="black" fill="none" stroke-linecap="round"></path><path d="M 225.000,197.333 C 224.621,192.720 225.350,193.135 223.000,188.667" stroke-width="4.421" stroke="black" fill="none" stroke-linecap="round"></path><path d="M 223.000,188.667 C 219.017,185.299 221.955,186.053 219.667,184.000" stroke-width="4.841" stroke="black" fill="none" stroke-linecap="round"></path><path d="M 219.667,184.000 C 223.119,184.607 220.350,182.632 225.667,183.333" stroke-width="5.195" stroke="black" fill="none" stroke-linecap="round"></path><path d="M 225.667,183.333 C 227.806,178.526 228.452,181.941 230.333,178.667" stroke-width="4.829" stroke="black" fill="none" stroke-linecap="round"></path><path d="M 230.333,178.667 C 234.518,180.851 233.806,178.860 237.667,184.000" stroke-width="5.133" stroke="black" fill="none" stroke-linecap="round"></path><path d="M 237.667,184.000 C 238.843,187.177 239.851,186.184 241.000,189.333" stroke-width="4.314" stroke="black" fill="none" stroke-linecap="round"></path><path d="M 241.000,189.333 C 243.142,191.203 242.843,191.177 245.667,192.000" stroke-width="4.326" stroke="black" fill="none" stroke-linecap="round"></path><path d="M 245.667,192.000 C 250.475,194.460 249.476,193.203 253.667,193.333" stroke-width="4.682" stroke="black" fill="none" stroke-linecap="round"></path><path d="M 253.667,193.333 C 255.734,190.848 256.142,192.460 257.000,188.000" stroke-width="4.712" stroke="black" fill="none" stroke-linecap="round"></path><path d="M 257.000,188.000 C 256.942,182.362 258.401,184.848 259.000,181.333" stroke-width="4.647" stroke="black" fill="none" stroke-linecap="round"></path><path d="M 259.000,181.333 C 262.397,182.141 260.942,180.362 265.000,184.000" stroke-width="5.099" stroke="black" fill="none" stroke-linecap="round"></path><path d="M 265.000,184.000 C 266.119,187.170 267.064,185.474 268.333,188.000" stroke-width="4.942" stroke="black" fill="none" stroke-linecap="round"></path><path d="M 268.333,188.000 C 273.651,190.253 271.452,189.170 275.667,188.000" stroke-width="4.908" stroke="black" fill="none" stroke-linecap="round"></path><path d="M 275.667,188.000 C 278.944,181.838 279.318,183.919 279.667,175.333" stroke-width="4.243" stroke="black" fill="none" stroke-linecap="round"></path><path d="M 279.667,175.333 C 279.552,166.652 280.611,166.838 279.000,158.000" stroke-width="3.838" stroke="black" fill="none" stroke-linecap="round"></path><path d="M 279.000,158.000 C 278.734,150.937 278.552,150.985 277.667,144.000" stroke-width="3.205" stroke="black" fill="none" stroke-linecap="round"></path><path d="M 277.667,144.000 C 276.615,137.922 276.734,137.937 275.000,132.000" stroke-width="3.246" stroke="black" fill="none" stroke-linecap="round"></path><path d="M 275.000,132.000 C 273.466,126.949 273.615,126.922 271.667,122.000" stroke-width="3.897" stroke="black" fill="none" stroke-linecap="round"></path><path d="M 271.667,122.000 C 270.063,116.244 270.800,119.616 269.667,117.333" stroke-width="4.545" stroke="black" fill="none" stroke-linecap="round"></path><path d="M 269.667,117.333 C 268.677,123.367 268.729,119.911 269.000,129.333" stroke-width="4.802" stroke="black" fill="none" stroke-linecap="round"></path><path d="M 269.000,129.333 C 269.615,135.768 269.344,135.700 271.000,142.000" stroke-width="3.488" stroke="black" fill="none" stroke-linecap="round"></path><path d="M 271.000,142.000 C 272.219,144.599 271.615,144.768 273.000,147.333" stroke-width="3.966" stroke="black" fill="none" stroke-linecap="round"></path><path d="M 273.000,147.333 C 274.377,154.087 274.885,153.932 276.333,160.667" stroke-width="3.326" stroke="black" fill="none" stroke-linecap="round"></path><path d="M 276.333,160.667 C 278.132,166.413 278.044,166.420 280.333,172.000" stroke-width="3.245" stroke="black" fill="none" stroke-linecap="round"></path><path d="M 280.333,172.000 C 281.707,178.138 282.466,177.413 285.000,182.667" stroke-width="3.835" stroke="black" fill="none" stroke-linecap="round"></path><path d="M 285.000,182.667 C 287.860,186.318 287.040,185.471 291.000,186.667" stroke-width="4.350" stroke="black" fill="none" stroke-linecap="round"></path><path d="M 291.000,186.667 C 294.718,186.119 293.860,186.984 297.000,184.000" stroke-width="4.614" stroke="black" fill="none" stroke-linecap="round"></path><path d="M 297.000,184.000 C 298.667,181.000 299.385,181.785 300.333,178.000" stroke-width="4.172" stroke="black" fill="none" stroke-linecap="round"></path><path d="M 300.333,178.000 C 302.684,175.230 302.000,175.000 303.667,172.000" stroke-width="4.055" stroke="black" fill="none" stroke-linecap="round"></path><path d="M 303.667,172.000 C 305.000,167.299 305.017,167.563 305.000,162.667" stroke-width="4.293" stroke="black" fill="none" stroke-linecap="round"></path><path d="M 305.000,162.667 C 305.420,158.608 305.000,159.966 303.667,157.333" stroke-width="4.663" stroke="black" fill="none" stroke-linecap="round"></path><path d="M 303.667,157.333 C 300.314,156.304 301.753,155.942 297.667,157.333" stroke-width="4.715" stroke="black" fill="none" stroke-linecap="round"></path><path d="M 297.667,157.333 C 294.327,159.340 294.314,158.637 291.667,162.000" stroke-width="4.614" stroke="black" fill="none" stroke-linecap="round"></path><path d="M 291.667,162.000 C 289.748,164.191 289.660,164.007 288.333,166.667" stroke-width="4.365" stroke="black" fill="none" stroke-linecap="round"></path><path d="M 288.333,166.667 C 285.282,169.888 287.081,168.858 286.333,171.333" stroke-width="4.870" stroke="black" fill="none" stroke-linecap="round"></path><path d="M 286.333,171.333 C 290.046,172.552 287.949,173.555 293.667,174.000" stroke-width="4.992" stroke="black" fill="none" stroke-linecap="round"></path><path d="M 293.667,174.000 C 296.938,174.893 296.713,175.219 299.667,176.667" stroke-width="4.794" stroke="black" fill="none" stroke-linecap="round"></path><path d="M 299.667,176.667 C 303.002,180.268 303.605,179.226 307.000,182.667" stroke-width="4.489" stroke="black" fill="none" stroke-linecap="round"></path><path d="M 307.000,182.667 C 309.920,184.051 309.669,184.268 313.000,184.667" stroke-width="4.649" stroke="black" fill="none" stroke-linecap="round"></path><path d="M 313.000,184.667 C 317.236,186.572 316.586,185.384 320.333,185.333" stroke-width="4.631" stroke="black" fill="none" stroke-linecap="round"></path><path d="M 320.333,185.333 C 323.890,182.716 323.903,183.906 326.333,179.333" stroke-width="4.764" stroke="black" fill="none" stroke-linecap="round"></path><path d="M 326.333,179.333 C 327.919,176.423 328.224,176.716 329.000,173.333" stroke-width="4.193" stroke="black" fill="none" stroke-linecap="round"></path><path d="M 329.000,173.333 C 329.692,169.549 330.252,169.756 331.000,166.000" stroke-width="4.451" stroke="black" fill="none" stroke-linecap="round"></path><path d="M 331.000,166.000 C 332.264,163.296 332.026,163.216 333.667,160.667" stroke-width="4.198" stroke="black" fill="none" stroke-linecap="round"></path><path d="M 333.667,160.667 C 336.333,155.572 334.931,158.296 336.333,156.000" stroke-width="4.639" stroke="black" fill="none" stroke-linecap="round"></path><path d="M 336.333,156.000 C 333.804,159.224 336.333,156.572 333.667,162.667" stroke-width="5.143" stroke="black" fill="none" stroke-linecap="round"></path><path d="M 333.667,162.667 C 334.331,167.771 333.471,167.557 335.667,172.667" stroke-width="4.543" stroke="black" fill="none" stroke-linecap="round"></path><path d="M 335.667,172.667 C 336.000,176.667 336.331,175.104 337.667,177.333" stroke-width="4.771" stroke="black" fill="none" stroke-linecap="round"></path><path d="M 337.667,177.333 C 341.471,177.201 339.333,178.000 342.333,175.333" stroke-width="5.132" stroke="black" fill="none" stroke-linecap="round"></path><path d="M 342.333,175.333 C 340.320,169.677 343.471,172.868 341.667,168.667" stroke-width="5.002" stroke="black" fill="none" stroke-linecap="round"></path><path d="M 341.667,168.667 C 344.659,170.018 342.987,167.677 347.667,171.333" stroke-width="5.282" stroke="black" fill="none" stroke-linecap="round"></path><path d="M 347.667,171.333 C 350.613,174.317 349.992,172.351 352.333,173.333" stroke-width="5.004" stroke="black" fill="none" stroke-linecap="round"></path><path d="M 352.333,173.333 C 355.614,169.986 355.279,171.650 357.000,166.000" stroke-width="4.883" stroke="black" fill="none" stroke-linecap="round"></path><path d="M 357.000,166.000 C 357.840,161.976 358.280,162.319 357.667,158.000" stroke-width="4.645" stroke="black" fill="none" stroke-linecap="round"></path><path d="M 357.667,158.000 C 355.249,151.751 357.506,154.309 356.333,150.667" stroke-width="4.605" stroke="black" fill="none" stroke-linecap="round"></path><path d="M 356.333,150.667 C 359.613,151.776 357.249,149.751 361.667,154.000" stroke-width="5.144" stroke="black" fill="none" stroke-linecap="round"></path><path d="M 361.667,154.000 C 363.111,156.616 363.613,156.109 364.333,159.333" stroke-width="4.872" stroke="black" fill="none" stroke-linecap="round"></path><path d="M 364.333,159.333 C 365.062,164.171 366.111,163.283 367.667,167.333" stroke-width="4.593" stroke="black" fill="none" stroke-linecap="round"></path><circle r="1.5" cx="253.66668701171875" cy="162.66668701171875" fill="black"></circle><path d="M 391.000,148.000 C 394.816,149.915 394.000,148.333 397.000,148.667" stroke-width="5.448" stroke="black" fill="none" stroke-linecap="round"></path><path d="M 397.000,148.667 C 399.969,145.763 399.483,147.248 400.333,142.667" stroke-width="4.869" stroke="black" fill="none" stroke-linecap="round"></path><path d="M 400.333,142.667 C 400.237,139.237 400.636,140.097 398.333,137.333" stroke-width="4.833" stroke="black" fill="none" stroke-linecap="round"></path><path d="M 398.333,137.333 C 394.641,133.464 395.237,134.237 390.333,132.667" stroke-width="4.516" stroke="black" fill="none" stroke-linecap="round"></path><path d="M 390.333,132.667 C 385.009,132.512 385.641,131.798 380.333,134.000" stroke-width="4.390" stroke="black" fill="none" stroke-linecap="round"></path><path d="M 380.333,134.000 C 377.263,135.054 377.676,134.846 375.667,137.333" stroke-width="4.212" stroke="black" fill="none" stroke-linecap="round"></path><path d="M 375.667,137.333 C 372.158,142.123 372.596,141.720 371.000,147.333" stroke-width="4.215" stroke="black" fill="none" stroke-linecap="round"></path><path d="M 371.000,147.333 C 370.630,151.531 370.158,151.123 371.667,155.333" stroke-width="3.931" stroke="black" fill="none" stroke-linecap="round"></path><path d="M 371.667,155.333 C 372.731,159.126 372.630,158.864 375.000,162.000" stroke-width="3.917" stroke="black" fill="none" stroke-linecap="round"></path><path d="M 375.000,162.000 C 377.913,165.748 377.731,165.459 381.667,168.000" stroke-width="4.258" stroke="black" fill="none" stroke-linecap="round"></path><path d="M 381.667,168.000 C 385.425,170.684 384.580,169.748 388.333,170.000" stroke-width="4.538" stroke="black" fill="none" stroke-linecap="round"></path><path d="M 388.333,170.000 C 391.447,168.095 391.091,169.351 393.000,165.333" stroke-width="4.642" stroke="black" fill="none" stroke-linecap="round"></path><path d="M 393.000,165.333 C 394.333,162.365 394.447,162.762 394.333,159.333" stroke-width="4.221" stroke="black" fill="none" stroke-linecap="round"></path><path d="M 394.333,159.333 C 394.199,153.863 394.333,154.031 393.000,148.667" stroke-width="4.258" stroke="black" fill="none" stroke-linecap="round"></path><path d="M 359.667,108.000 C 359.981,111.002 360.000,111.000 360.333,114.000" stroke-width="5.282" stroke="black" fill="none" stroke-linecap="round"></path><path d="M 360.333,114.000 C 360.505,116.694 360.647,116.669 361.000,119.333" stroke-width="4.533" stroke="black" fill="none" stroke-linecap="round"></path><path d="M 361.000,119.333 C 361.939,127.551 362.505,127.360 364.333,135.333" stroke-width="3.294" stroke="black" fill="none" stroke-linecap="round"></path><path d="M 364.333,135.333 C 368.056,144.645 367.272,144.884 371.667,154.000" stroke-width="2.760" stroke="black" fill="none" stroke-linecap="round"></path><path d="M 371.667,154.000 C 375.597,163.579 375.389,163.645 379.000,173.333" stroke-width="2.601" stroke="black" fill="none" stroke-linecap="round"></path><path d="M 379.000,173.333 C 380.490,177.959 380.597,177.912 381.667,182.667" stroke-width="3.296" stroke="black" fill="none" stroke-linecap="round"></path><path d="M 381.667,182.667 C 384.182,192.628 384.157,192.626 386.333,202.667" stroke-width="2.734" stroke="black" fill="none" stroke-linecap="round"></path><path d="M 386.333,202.667 C 388.026,211.328 388.182,211.295 389.667,220.000" stroke-width="2.752" stroke="black" fill="none" stroke-linecap="round"></path><path d="M 389.667,220.000 C 390.098,223.727 390.359,223.662 391.000,227.333" stroke-width="3.509" stroke="black" fill="none" stroke-linecap="round"></path><path d="M 193.667,256.000 C 201.667,253.000 201.667,253.000 209.667,250.000" stroke-width="4.794" stroke="black" fill="none" stroke-linecap="round"></path><path d="M 209.667,250.000 C 215.008,248.020 215.000,248.000 220.333,246.000" stroke-width="3.698" stroke="black" fill="none" stroke-linecap="round"></path><path d="M 220.333,246.000 C 234.448,240.950 234.341,240.687 248.333,235.333" stroke-width="2.353" stroke="black" fill="none" stroke-linecap="round"></path><path d="M 248.333,235.333 C 264.065,228.816 264.114,228.950 279.667,222.000" stroke-width="1.935" stroke="black" fill="none" stroke-linecap="round"></path><path d="M 279.667,222.000 C 298.194,213.331 298.399,213.816 317.000,205.333" stroke-width="1.779" stroke="black" fill="none" stroke-linecap="round"></path><path d="M 317.000,205.333 C 327.404,201.510 327.194,200.998 337.667,197.333" stroke-width="2.196" stroke="black" fill="none" stroke-linecap="round"></path><path d="M 337.667,197.333 C 355.885,189.379 356.071,189.843 374.333,182.000" stroke-width="1.812" stroke="black" fill="none" stroke-linecap="round"></path><path d="M 374.333,182.000 C 394.307,174.263 394.218,174.046 414.333,166.667" stroke-width="1.657" stroke="black" fill="none" stroke-linecap="round"></path><path d="M 414.333,166.667 C 423.295,163.228 423.307,163.263 432.333,160.000" stroke-width="2.282" stroke="black" fill="none" stroke-linecap="round"></path><path d="M 432.333,160.000 C 446.565,154.682 446.629,154.894 461.000,150.000" stroke-width="2.147" stroke="black" fill="none" stroke-linecap="round"></path><path d="M 461.000,150.000 C 471.314,146.930 471.232,146.682 481.667,144.000" stroke-width="2.371" stroke="black" fill="none" stroke-linecap="round"></path><path d="M 481.667,144.000 C 489.010,142.034 488.980,141.930 496.333,140.000" stroke-width="2.761" stroke="black" fill="none" stroke-linecap="round"></path><path d="M 385.000,173.333 C 387.765,171.710 387.333,171.333 389.667,169.333" stroke-width="5.413" stroke="black" fill="none" stroke-linecap="round"></path><path d="M 389.667,169.333 C 393.071,164.885 393.099,165.043 395.667,160.000" stroke-width="3.830" stroke="black" fill="none" stroke-linecap="round"></path><path d="M 395.667,160.000 C 398.525,154.074 398.738,154.218 401.000,148.000" stroke-width="3.346" stroke="black" fill="none" stroke-linecap="round"></path><path d="M 401.000,148.000 C 402.406,145.090 402.192,145.074 403.000,142.000" stroke-width="3.798" stroke="black" fill="none" stroke-linecap="round"></path><path d="M 403.000,142.000 C 404.333,136.331 404.072,136.424 404.333,130.667" stroke-width="3.485" stroke="black" fill="none" stroke-linecap="round"></path><path d="M 404.333,130.667 C 404.612,125.014 404.333,125.331 403.000,120.000" stroke-width="3.458" stroke="black" fill="none" stroke-linecap="round"></path><path d="M 403.000,120.000 C 401.411,115.358 401.612,115.680 398.333,112.000" stroke-width="3.530" stroke="black" fill="none" stroke-linecap="round"></path><path d="M 398.333,112.000 C 393.760,107.216 394.078,107.358 388.333,104.000" stroke-width="3.902" stroke="black" fill="none" stroke-linecap="round"></path><path d="M 388.333,104.000 C 384.393,101.702 384.760,101.882 380.333,101.333" stroke-width="3.746" stroke="black" fill="none" stroke-linecap="round"></path><path d="M 380.333,101.333 C 376.498,101.157 377.060,101.036 373.667,102.667" stroke-width="4.359" stroke="black" fill="none" stroke-linecap="round"></path><path d="M 373.667,102.667 C 371.317,104.370 371.498,103.823 370.333,106.667" stroke-width="4.278" stroke="black" fill="none" stroke-linecap="round"></path><path d="M 370.333,106.667 C 368.928,109.505 369.317,109.037 369.667,112.000" stroke-width="4.275" stroke="black" fill="none" stroke-linecap="round"></path><path d="M 369.667,112.000 C 372.683,118.326 371.594,118.505 375.667,124.667" stroke-width="4.041" stroke="black" fill="none" stroke-linecap="round"></path><path d="M 375.667,124.667 C 378.062,129.638 378.016,129.659 380.333,134.667" stroke-width="3.578" stroke="black" fill="none" stroke-linecap="round"></path><path d="M 380.333,134.667 C 382.655,140.005 382.729,139.972 385.000,145.333" stroke-width="3.407" stroke="black" fill="none" stroke-linecap="round"></path><path d="M 385.000,145.333 C 386.200,148.399 386.322,148.338 387.667,151.333" stroke-width="3.794" stroke="black" fill="none" stroke-linecap="round"></path><path d="M 387.667,151.333 C 389.893,155.729 389.866,155.732 392.333,160.000" stroke-width="3.629" stroke="black" fill="none" stroke-linecap="round"></path><path d="M 392.333,160.000 C 393.923,162.718 393.893,162.729 395.667,165.333" stroke-width="3.950" stroke="black" fill="none" stroke-linecap="round"></path><path d="M 395.667,165.333 C 397.230,170.000 397.257,167.718 399.000,170.000" stroke-width="4.658" stroke="black" fill="none" stroke-linecap="round"></path><path d="M 399.000,170.000 C 401.268,167.853 400.897,170.000 403.000,165.333" stroke-width="4.899" stroke="black" fill="none" stroke-linecap="round"></path><path d="M 403.000,165.333 C 403.777,161.091 404.934,162.520 406.333,159.333" stroke-width="4.932" stroke="black" fill="none" stroke-linecap="round"></path><path d="M 406.333,159.333 C 409.972,158.352 409.110,157.424 413.667,158.000" stroke-width="5.017" stroke="black" fill="none" stroke-linecap="round"></path><path d="M 413.667,158.000 C 417.108,158.614 416.972,157.685 420.333,158.000" stroke-width="4.793" stroke="black" fill="none" stroke-linecap="round"></path><path d="M 451.667,127.333 C 447.852,126.397 448.667,127.667 445.667,128.000" stroke-width="5.466" stroke="black" fill="none" stroke-linecap="round"></path><path d="M 445.667,128.000 C 442.743,131.078 442.852,130.064 441.667,134.667" stroke-width="4.772" stroke="black" fill="none" stroke-linecap="round"></path><path d="M 441.667,134.667 C 440.375,138.750 440.743,137.744 441.667,141.333" stroke-width="4.723" stroke="black" fill="none" stroke-linecap="round"></path><path d="M 441.667,141.333 C 444.715,144.647 442.708,143.416 446.333,144.000" stroke-width="5.052" stroke="black" fill="none" stroke-linecap="round"></path><path d="M 446.333,144.000 C 446.447,139.867 448.048,143.314 448.333,138.667" stroke-width="5.058" stroke="black" fill="none" stroke-linecap="round"></path><path d="M 448.333,138.667 C 451.167,139.833 450.113,137.534 453.667,139.333" stroke-width="5.342" stroke="black" fill="none" stroke-linecap="round"></path><path d="M 453.667,139.333 C 455.934,136.838 456.167,138.833 458.333,136.667" stroke-width="5.366" stroke="black" fill="none" stroke-linecap="round"></path><path d="M 458.333,136.667 C 460.950,139.140 460.600,136.505 463.000,138.667" stroke-width="5.383" stroke="black" fill="none" stroke-linecap="round"></path><path d="M 463.000,138.667 C 464.917,136.576 465.284,138.140 467.000,134.667" stroke-width="5.148" stroke="black" fill="none" stroke-linecap="round"></path><path d="M 467.000,134.667 C 468.669,131.745 468.917,132.909 471.000,131.333" stroke-width="5.110" stroke="black" fill="none" stroke-linecap="round"></path><path d="M 471.000,131.333 C 474.642,132.278 474.336,130.745 478.333,132.667" stroke-width="4.958" stroke="black" fill="none" stroke-linecap="round"></path><path d="M 478.333,132.667 C 481.499,133.751 480.975,132.945 483.667,132.667" stroke-width="5.132" stroke="black" fill="none" stroke-linecap="round"></path><path d="M 483.667,132.667 C 485.584,130.257 486.165,131.417 487.667,128.000" stroke-width="5.142" stroke="black" fill="none" stroke-linecap="round"></path><path d="M 487.667,128.000 C 489.201,125.096 489.584,125.923 491.667,124.000" stroke-width="5.173" stroke="black" fill="none" stroke-linecap="round"></path><circle r="1.5" cx="495" cy="88.66668701171875" fill="black"></circle><path d="M 310.333,226.000 C 311.117,233.153 311.667,233.000 313.000,240.000" stroke-width="5.187" stroke="black" fill="none" stroke-linecap="round"></path><path d="M 313.000,240.000 C 315.597,246.252 314.784,246.486 317.667,252.667" stroke-width="3.557" stroke="black" fill="none" stroke-linecap="round"></path><path d="M 317.667,252.667 C 318.262,256.803 318.931,256.585 319.667,260.667" stroke-width="3.664" stroke="black" fill="none" stroke-linecap="round"></path><path d="M 319.667,260.667 C 322.200,267.907 322.262,267.803 325.667,274.667" stroke-width="3.079" stroke="black" fill="none" stroke-linecap="round"></path><path d="M 325.667,274.667 C 329.108,280.828 328.867,280.907 333.000,286.667" stroke-width="3.079" stroke="black" fill="none" stroke-linecap="round"></path><path d="M 333.000,286.667 C 334.639,288.690 334.441,288.828 336.333,290.667" stroke-width="3.846" stroke="black" fill="none" stroke-linecap="round"></path><path d="M 348.333,236.000 C 344.740,236.068 345.000,236.667 341.667,237.333" stroke-width="5.294" stroke="black" fill="none" stroke-linecap="round"></path><path d="M 341.667,237.333 C 338.944,238.601 339.074,238.401 337.000,240.667" stroke-width="4.482" stroke="black" fill="none" stroke-linecap="round"></path><path d="M 337.000,240.667 C 333.396,244.323 333.611,244.268 331.000,248.667" stroke-width="3.780" stroke="black" fill="none" stroke-linecap="round"></path><path d="M 331.000,248.667 C 327.343,254.109 328.063,253.990 326.333,260.000" stroke-width="3.343" stroke="black" fill="none" stroke-linecap="round"></path><path d="M 326.333,260.000 C 325.542,266.375 325.343,265.776 327.000,272.000" stroke-width="3.853" stroke="black" fill="none" stroke-linecap="round"></path><path d="M 327.000,272.000 C 328.500,275.500 327.875,275.375 331.000,278.000" stroke-width="3.920" stroke="black" fill="none" stroke-linecap="round"></path><path d="M 331.000,278.000 C 333.936,282.146 333.500,280.500 337.000,282.000" stroke-width="4.367" stroke="black" fill="none" stroke-linecap="round"></path><path d="M 337.000,282.000 C 342.208,280.648 340.936,281.813 345.000,277.333" stroke-width="4.385" stroke="black" fill="none" stroke-linecap="round"></path><path d="M 345.000,277.333 C 346.922,273.429 347.542,274.315 347.667,269.333" stroke-width="4.470" stroke="black" fill="none" stroke-linecap="round"></path><path d="M 347.667,269.333 C 346.416,262.979 348.255,266.096 347.667,262.667" stroke-width="4.615" stroke="black" fill="none" stroke-linecap="round"></path><path d="M 347.667,262.667 C 349.918,266.006 349.082,262.313 353.000,268.000" stroke-width="5.027" stroke="black" fill="none" stroke-linecap="round"></path><path d="M 353.000,268.000 C 356.464,270.676 355.584,269.672 359.000,270.000" stroke-width="5.003" stroke="black" fill="none" stroke-linecap="round"></path><path d="M 359.000,270.000 C 361.595,268.003 361.464,269.343 363.000,265.333" stroke-width="4.817" stroke="black" fill="none" stroke-linecap="round"></path><path d="M 363.000,265.333 C 363.110,260.073 364.928,261.670 365.667,257.333" stroke-width="4.576" stroke="black" fill="none" stroke-linecap="round"></path><path d="M 365.667,257.333 C 369.000,256.333 367.777,255.073 372.333,255.333" stroke-width="5.078" stroke="black" fill="none" stroke-linecap="round"></path><path d="M 372.333,255.333 C 376.483,255.347 375.667,254.333 379.000,253.333" stroke-width="4.979" stroke="black" fill="none" stroke-linecap="round"></path><path d="M 379.000,253.333 C 380.800,250.400 381.483,251.347 382.333,247.333" stroke-width="4.749" stroke="black" fill="none" stroke-linecap="round"></path><path d="M 382.333,247.333 C 382.742,242.723 383.800,244.400 385.000,241.333" stroke-width="4.725" stroke="black" fill="none" stroke-linecap="round"></path><path d="M 385.000,241.333 C 388.103,241.276 387.076,240.056 391.000,242.000" stroke-width="5.017" stroke="black" fill="none" stroke-linecap="round"></path><path d="M 391.000,242.000 C 393.966,244.850 393.436,242.609 395.667,244.000" stroke-width="5.163" stroke="black" fill="none" stroke-linecap="round"></path><path d="M 395.667,244.000 C 397.212,240.926 397.966,242.850 399.000,238.000" stroke-width="5.009" stroke="black" fill="none" stroke-linecap="round"></path><path d="M 399.000,238.000 C 400.336,234.131 400.879,234.926 403.000,232.000" stroke-width="4.944" stroke="black" fill="none" stroke-linecap="round"></path><path d="M 403.000,232.000 C 405.921,230.513 405.336,230.131 409.000,230.000" stroke-width="4.978" stroke="black" fill="none" stroke-linecap="round"></path><path d="M 409.000,230.000 C 412.213,230.836 411.921,229.513 415.000,230.000" stroke-width="5.024" stroke="black" fill="none" stroke-linecap="round"></path><path d="M 415.000,230.000 C 419.406,228.745 418.880,228.836 422.333,226.000" stroke-width="4.637" stroke="black" fill="none" stroke-linecap="round"></path><path d="M 422.333,226.000 C 423.984,222.991 424.739,223.745 425.667,220.000" stroke-width="4.633" stroke="black" fill="none" stroke-linecap="round"></path><path d="M 425.667,220.000 C 426.168,216.632 426.984,217.658 428.333,215.333" stroke-width="4.937" stroke="black" fill="none" stroke-linecap="round"></path><path d="M 457.667,176.667 C 455.364,178.787 455.667,179.000 453.667,181.333" stroke-width="5.187" stroke="black" fill="none" stroke-linecap="round"></path><path d="M 453.667,181.333 C 450.375,185.766 450.698,185.787 448.333,190.667" stroke-width="4.512" stroke="black" fill="none" stroke-linecap="round"></path><path d="M 448.333,190.667 C 446.835,194.039 447.042,193.766 447.000,197.333" stroke-width="4.155" stroke="black" fill="none" stroke-linecap="round"></path><path d="M 447.000,197.333 C 446.984,201.617 447.169,200.706 449.000,204.000" stroke-width="4.502" stroke="black" fill="none" stroke-linecap="round"></path><path d="M 449.000,204.000 C 452.683,207.050 450.650,205.950 454.333,206.000" stroke-width="4.963" stroke="black" fill="none" stroke-linecap="round"></path><path d="M 454.333,206.000 C 455.581,202.719 456.350,204.717 456.333,199.333" stroke-width="4.753" stroke="black" fill="none" stroke-linecap="round"></path><path d="M 456.333,199.333 C 455.706,194.144 456.914,196.719 457.000,194.000" stroke-width="5.046" stroke="black" fill="none" stroke-linecap="round"></path><path d="M 457.000,194.000 C 459.249,197.639 458.706,193.810 462.333,198.667" stroke-width="5.127" stroke="black" fill="none" stroke-linecap="round"></path><path d="M 462.333,198.667 C 466.311,199.613 465.249,199.639 469.000,198.000" stroke-width="4.820" stroke="black" fill="none" stroke-linecap="round"></path><path d="M 469.000,198.000 C 473.121,194.779 472.978,195.613 475.667,190.667" stroke-width="4.463" stroke="black" fill="none" stroke-linecap="round"></path><path d="M 475.667,190.667 C 477.490,187.363 477.454,187.779 477.667,184.000" stroke-width="4.122" stroke="black" fill="none" stroke-linecap="round"></path><path d="M 477.667,184.000 C 477.722,180.604 477.823,181.030 476.333,178.000" stroke-width="4.537" stroke="black" fill="none" stroke-linecap="round"></path><path d="M 476.333,178.000 C 471.728,174.606 475.055,175.604 472.333,174.000" stroke-width="4.719" stroke="black" fill="none" stroke-linecap="round"></path><path d="M 472.333,174.000 C 476.089,173.878 473.061,173.272 479.000,175.333" stroke-width="5.090" stroke="black" fill="none" stroke-linecap="round"></path><path d="M 479.000,175.333 C 481.164,177.191 481.422,176.544 483.000,179.333" stroke-width="4.900" stroke="black" fill="none" stroke-linecap="round"></path><path d="M 483.000,179.333 C 484.975,182.019 485.164,181.858 487.000,184.667" stroke-width="4.744" stroke="black" fill="none" stroke-linecap="round"></path><path d="M 487.000,184.667 C 488.664,188.612 489.309,187.686 491.667,190.667" stroke-width="4.622" stroke="black" fill="none" stroke-linecap="round"></path></svg>